<?xml version="1.0" encoding="UTF-8"?>
<svg version="1.1" xmlns="http://www.w3.org/2000/svg" width="3803" height="906">
<path d="M0 0 C49.17 0 98.34 0 149 0 C161.6136252 50.45450082 161.6136252 50.45450082 165.84765625 68.34375 C166.34338696 70.42860524 166.83938969 72.51339582 167.33563232 74.59812927 C168.64347946 80.09464944 169.94859766 85.59181345 171.25299454 91.08915329 C173.80522306 101.8429538 176.36296147 112.5954448 178.921875 123.34765625 C179.21201288 124.56713015 179.50215076 125.78660404 179.8010807 127.04303169 C184.15853239 145.35150303 188.56983779 163.64638721 193.015625 181.93359375 C218.68820656 287.60239159 218.68820656 287.60239159 227 334 C227.13764267 333.39487579 227.27528534 332.78975159 227.417099 332.16629028 C236.71953514 291.32420884 246.78781312 250.7275878 257.4193573 210.21296692 C258.00531621 207.97973866 258.59090236 205.74641296 259.1763916 203.51306152 C263.91539258 185.43766213 268.67321137 167.36725218 273.44016838 149.29920769 C276.79678701 136.57574861 280.14229598 123.8494044 283.48046875 111.12109375 C283.70751621 110.25539198 283.93456367 109.38969021 284.16849136 108.49775505 C285.08131616 105.01716782 285.99408712 101.53656647 286.90679741 98.05594921 C293.49645906 72.92658436 300.09260128 47.79901993 306.75 22.6875 C307.02125702 21.66322906 307.29251404 20.63895813 307.57199097 19.58364868 C308.31250475 16.78854147 309.05437945 13.99380009 309.796875 11.19921875 C310.00931351 10.39721039 310.22175201 9.59520203 310.44062805 8.76889038 C311.22666508 5.81685418 312.03367099 2.89898704 313 0 C352.6 0 392.2 0 433 0 C434.99772221 5.32725923 436.76305442 10.41405571 438.17871094 15.88110352 C438.37680831 16.63205921 438.57490568 17.38301491 438.779006 18.15672684 C439.43473714 20.64643594 440.08453908 23.13765255 440.734375 25.62890625 C441.20431665 27.41771767 441.67464831 29.20642667 442.14533997 30.99504089 C443.15478993 34.8340039 444.1616728 38.6736274 445.16653442 42.51379395 C446.77208992 48.64930318 448.38344635 54.78327948 449.99584961 60.91699219 C451.67020801 67.28729102 453.34428495 73.65766269 455.01646423 80.02853394 C459.80677566 98.27838155 464.62268927 116.52138792 469.44926929 134.76167297 C471.09717874 140.98959635 472.74299882 147.21806925 474.38793945 153.44677734 C478.80493826 170.16889669 483.23255641 186.88804293 487.69197083 203.59890747 C489.52206057 210.45729399 491.34727501 217.31697558 493.17145824 224.1769352 C494.40494761 228.81407727 495.64102017 233.45049212 496.88406372 238.08508301 C505.03545757 268.4846348 512.46967638 299.00108076 518 330 C518.13986328 329.34555908 518.27972656 328.69111816 518.42382812 328.0168457 C518.72450195 326.6105188 518.72450195 326.6105188 519.03125 325.17578125 C519.37422119 323.57138184 519.37422119 323.57138184 519.72412109 321.93457031 C520.25678387 319.44791677 520.79104904 316.96160609 521.32666016 314.47558594 C522.64342169 308.36243137 523.95432486 302.24877678 525.21200562 296.12315369 C529.81645449 273.72705472 535.26257113 251.56437895 540.85522461 229.39672852 C541.38496216 227.2969361 541.9146933 225.19714208 542.44436836 223.09733391 C542.81508284 221.62772886 543.18586611 220.15814116 543.55671501 218.68857002 C547.34332717 203.67691322 551.06846813 188.6501964 554.78515625 173.62109375 C555.07922867 172.43210857 555.37330109 171.2431234 555.67628479 170.01810837 C558.36100338 159.16235884 561.04375946 148.30612468 563.72528076 137.44958496 C565.14198313 131.71405736 566.55980143 125.97880659 567.97833061 120.24373055 C568.76358497 117.06737309 569.54746269 113.89067791 570.33131409 110.713974 C570.80535321 108.79717133 571.27946492 106.88038662 571.75366211 104.96362305 C571.96808393 104.09298847 572.18250576 103.2223539 572.40342522 102.32533646 C572.60041071 101.53035625 572.7973962 100.73537605 573.00035095 99.91630554 C573.170381 99.2278892 573.34041105 98.53947287 573.51559353 97.83019543 C573.94656665 96.20188308 574.467352 94.59794401 575 93 C577.97835591 92.7031879 579.46211907 92.57105698 581.8515625 94.4765625 C582.43679688 95.18554688 583.02203125 95.89453125 583.625 96.625 C584.31335938 97.44871094 585.00171875 98.27242188 585.7109375 99.12109375 C588.71190613 102.89534952 591.69464201 106.68326211 594.65087891 110.49267578 C597.9834181 114.7692254 601.4446826 118.90747805 605 123 C609.45390822 128.12915507 613.69625818 133.38018348 617.85546875 138.75 C621.11981246 142.94033232 624.51772465 146.98956463 628 151 C632.4537707 156.12927834 636.69625218 161.38017572 640.85546875 166.75 C644.11981246 170.94033232 647.51772465 174.98956463 651 179 C655.4492948 184.12412358 659.68965713 189.36822734 663.84228516 194.73461914 C667.68539502 199.67130248 671.72292021 204.42106579 675.85351562 209.11914062 C677.25799017 210.72839412 678.628831 212.36235112 680 214 C680.4940332 214.54414551 680.98806641 215.08829102 681.49707031 215.64892578 C683.46672686 218.01020597 684.96058737 219.85429251 685.06902599 223.0065546 C684.33042056 228.51001913 683.15469988 233.73952202 681.60864258 239.07006836 C681.3634041 239.93737611 681.11816563 240.80468386 680.86549568 241.69827366 C680.04861643 244.58077073 679.22157042 247.46024683 678.39453125 250.33984375 C677.80547438 252.41090953 677.21707683 254.48216293 676.62928772 256.55358887 C675.36384235 261.00802063 674.0939298 265.46114513 672.82049561 269.91329956 C670.78290531 277.0372736 668.75518637 284.16403404 666.72900391 291.29125977 C664.25562984 299.9892089 661.78000664 308.68651141 659.30142975 317.38297939 C653.3906144 338.12319524 647.51738901 358.87398482 641.64986515 379.62648201 C639.49493265 387.24758936 637.33712499 394.86787852 635.17797852 402.48779297 C629.08202789 424.00469668 623.00470525 445.52660886 616.96397781 467.05908775 C615.00517953 474.03807533 613.04230137 481.01591663 611.07928276 487.99371815 C609.21100316 494.6367536 607.34972032 501.28169818 605.49359322 507.92813873 C604.3564998 511.99362559 603.21291769 516.05726521 602.06746292 520.12040329 C601.53685664 522.00784623 601.00903938 523.89607566 600.4841423 525.78511429 C599.77042454 528.35241416 599.04713362 530.91681996 598.32128906 533.48071289 C598.00992665 534.61451212 598.00992665 534.61451212 597.69227409 535.77121639 C597.18812654 537.53241822 596.60213087 539.26984537 596 541 C593.39744739 542.3012763 591.51180181 542.12293904 588.59640503 542.12025452 C587.44933075 542.12162918 586.30225647 542.12300385 585.12042236 542.12442017 C583.85591248 542.12082489 582.59140259 542.11722961 581.28857422 542.11352539 C579.9483948 542.11324343 578.60821522 542.11340143 577.26803589 542.1139679 C573.62362899 542.11425551 569.97925483 542.10836451 566.33485556 542.10139394 C562.52850605 542.09515451 558.72215584 542.09455613 554.915802 542.09336853 C547.70517041 542.09025696 540.49455392 542.0820459 533.28392899 542.07201904 C525.07606021 542.06085251 516.86819071 542.05534609 508.66031623 542.05032361 C491.7735354 542.03986316 474.8867693 542.02226707 458 542 C455.74453089 536.51414297 453.59441154 531.08104994 451.96728516 525.36962891 C451.61726944 524.15109726 451.26725372 522.93256561 450.90663147 521.67710876 C450.53403828 520.36027987 450.16151766 519.04343044 449.7890625 517.7265625 C449.38524659 516.31407502 448.98093017 514.90173056 448.57615662 513.48951721 C447.70889297 510.46026216 446.84478605 507.43013188 445.98318481 504.39926147 C444.59899884 499.53063651 443.20733933 494.6641678 441.81420898 489.7980957 C441.33347496 488.11873032 440.85274685 486.43936324 440.37202454 484.75999451 C440.13163263 483.92024015 439.89124073 483.0804858 439.64356422 482.21528435 C438.9046597 479.63313573 438.16643703 477.05079303 437.4283905 474.46839905 C433.01914373 459.04368776 428.56732579 443.6314702 424.10107994 428.22317886 C422.5043859 422.71443518 420.91079367 417.20480061 419.31835938 411.69482422 C414.9117172 396.45270217 410.48257976 381.2177613 406.00065804 365.99759102 C403.86786041 358.75061385 401.74371324 351.50110652 399.625 344.25 C399.28194384 343.07605745 399.28194384 343.07605745 398.93195724 341.8783989 C389.37534205 309.14131175 380.9417668 276.16306233 373 243 C372.80591553 243.82963257 372.80591553 243.82963257 372.60791016 244.67602539 C360.65820401 295.54689888 346.15749817 345.67019557 331.66531372 395.86312866 C326.41745229 414.04416691 321.21585859 432.23802713 316.03641367 450.43866038 C315.0468059 453.9156889 314.05657357 457.39253951 313.06637573 460.86940002 C308.45737987 477.05353595 308.45737987 477.05353595 303.85406494 493.23928833 C302.07402916 499.50220283 300.2898104 505.76391573 298.50292969 512.02488136 C297.84521625 514.33205586 297.18892042 516.63963501 296.53411865 518.94763756 C295.63981882 522.09927758 294.74068763 525.24949964 293.84033203 528.39941406 C293.57979601 529.32207849 293.31925999 530.24474291 293.05082893 531.19536686 C292.68706311 532.46235747 292.68706311 532.46235747 292.31594849 533.75494385 C292.10862658 534.48333591 291.90130466 535.21172798 291.68770027 535.96219254 C291 538 291 538 289 542 C243.79 542 198.58 542 152 542 C149.97359441 537.27172028 148.3532692 533.15452817 146.98901367 528.28295898 C146.80883698 527.6446817 146.62866028 527.00640442 146.44302368 526.3487854 C145.84682493 524.23246081 145.2574116 522.11430901 144.66796875 519.99609375 C144.24019834 518.47262281 143.81198957 516.94927489 143.38337708 515.42604065 C142.4631895 512.15238896 141.54597812 508.87792362 140.63110352 505.6027832 C139.16568886 500.35690789 137.69370519 495.11288973 136.22070312 489.86914062 C134.42334453 483.46917385 132.62747896 477.068792 130.8335743 470.66785622 C127.70815741 459.51648244 124.57119885 448.36840408 121.42578125 437.22265625 C121.20111868 436.42654875 120.97645611 435.63044125 120.74498558 434.81020927 C119.61546218 430.8079202 118.48571509 426.80569431 117.35586548 422.80349731 C115.29886206 415.51668233 113.24386943 408.22930017 111.18869591 400.94196892 C110.04254353 396.87795683 108.8962655 392.81398018 107.75 388.75 C107.29166606 387.12500017 106.83333273 385.50000017 106.375 383.875 C106.148125 383.070625 105.92125 382.26625 105.6875 381.4375 C103.62500032 374.12500115 103.62500032 374.12500115 102.93750191 371.68750668 C102.47916228 370.06248441 102.02082259 368.43746215 101.56248283 366.81243992 C100.41674536 362.75028078 99.27100893 358.68812135 98.12527466 354.6259613 C96.06163116 347.30939069 93.99798027 339.99282216 91.93428993 332.67626476 C90.78691724 328.60839673 89.63955073 324.54052695 88.4921875 320.47265625 C88.26506954 319.6674309 88.03795158 318.86220554 87.80395126 318.03257942 C84.61849119 306.73878392 81.43337498 295.44489149 78.24848175 284.15093613 C76.20740125 276.9131015 74.16622969 269.67529255 72.125 262.4375 C71.89983704 261.63911713 71.67467407 260.84073425 71.44268799 260.01815796 C63.46385068 231.72712193 55.47782747 203.43811801 47.48910522 175.14987183 C42.27255157 156.67787734 37.056894 138.2056323 31.8473587 119.73165703 C31.12427406 117.16752771 30.40110306 114.60342275 29.67791748 112.0393219 C27.577338 104.59116748 25.47735736 97.14284681 23.38046265 89.69365406 C22.27105548 85.7526635 21.16109837 81.81182803 20.05078125 77.87109375 C19.83627571 77.10975569 19.62177017 76.34841763 19.40076447 75.56400871 C16.5789018 65.55254839 13.73087661 55.54896919 10.8550663 45.55287552 C9.60611061 41.20846549 8.36274035 36.86245076 7.11795044 32.5168457 C6.15628592 29.17133967 5.18473142 25.82881819 4.21264648 22.48632812 C3.64387435 20.50274579 3.0755649 18.5190307 2.5078125 16.53515625 C2.24965256 15.65996841 1.99149261 14.78478058 1.72550964 13.8830719 C1.49527603 13.07095749 1.26504242 12.25884308 1.02783203 11.42211914 C0.82771515 10.73138809 0.62759827 10.04065704 0.42141724 9.32899475 C0 7 0 7 0 0 Z " fill="#184797" transform="translate(0,350)"/>
<path d="M0 0 C18.50642854 -0.23381136 37.0125566 -0.41004457 55.52015686 -0.51812172 C64.1140384 -0.5696427 72.70700123 -0.63985513 81.30029297 -0.75439453 C88.79206146 -0.85420403 96.28316456 -0.91861356 103.77557945 -0.94088495 C107.74160534 -0.95390079 111.70572808 -0.98438546 115.67114258 -1.05730057 C119.40804369 -1.12545369 123.14226855 -1.14606542 126.87973213 -1.13107681 C128.8967273 -1.13511745 130.91343408 -1.18879835 132.92967224 -1.24420166 C141.65272199 -1.14544483 141.65272199 -1.14544483 145.53271484 2.15329361 C147.5806465 4.68120924 149.30770224 7.22493353 151 10 C152.03256159 11.42392943 153.07473571 12.84102009 154.1328125 14.24609375 C155.1325422 15.6415601 156.12988119 17.03874185 157.125 18.4375 C158.25312516 20.01097697 159.38205874 21.58387459 160.51171875 23.15625 C161.08583496 23.95546875 161.65995117 24.7546875 162.25146484 25.578125 C165.11987135 29.55112033 168.02697746 33.49530189 170.9375 37.4375 C171.51838379 38.22439209 172.09926758 39.01128418 172.69775391 39.82202148 C173.87623802 41.41781076 175.05494914 43.01343242 176.23388672 44.60888672 C179.15956103 48.56991162 182.07950306 52.53515717 185 56.5 C186.1666389 58.08335379 187.33330558 59.66668712 188.5 61.25 C190.83333333 64.41666667 193.16666667 67.58333333 195.5 70.75 C196.07758057 71.53383057 196.65516113 72.31766113 197.25024414 73.12524414 C198.41620806 74.70768185 199.58206104 76.29020131 200.74780273 77.87280273 C203.67431443 81.84551887 206.60277534 85.81676994 209.53515625 89.78515625 C215.27423482 97.55599874 220.98429619 105.34488696 226.625 113.1875 C230.68967678 118.83863096 234.8068222 124.44355697 239 130 C243.75432309 136.30002511 248.3976986 142.67297707 253.00610352 149.08032227 C258.68556315 156.96991123 264.45674297 164.79068749 270.23388672 172.60888672 C273.15956103 176.56991162 276.07950306 180.53515717 279 184.5 C280.1666389 186.08335379 281.33330558 187.66668712 282.5 189.25 C284.83333333 192.41666667 287.16666667 195.58333333 289.5 198.75 C290.07758057 199.53383057 290.65516113 200.31766113 291.25024414 201.12524414 C292.41620806 202.70768185 293.58206104 204.29020131 294.74780273 205.87280273 C297.67431443 209.84551887 300.60277534 213.81676994 303.53515625 217.78515625 C309.82364887 226.29991783 316.06485206 234.84509883 322.24414062 243.43945312 C325.79093564 248.36003719 329.40645589 253.22274157 333.0625 258.0625 C334.55514751 260.0539945 336.0452871 262.04732458 337.53369141 264.04199219 C338.49453231 265.32503316 339.46019195 266.60448277 340.43115234 267.87988281 C362.30407341 296.71884559 378.51517038 331.9687322 393 365 C392.46283303 357.35685611 391.8018509 349.73131718 391.0625 342.10546875 C390.97701904 341.22287384 390.89153809 340.34027893 390.8034668 339.43093872 C390.44748065 335.76617963 390.08990706 332.10158218 389.72949219 328.43725586 C389.46305305 325.72272545 389.2000967 323.00787323 388.9375 320.29296875 C388.85830322 319.49763229 388.77910645 318.70229584 388.69750977 317.88285828 C388.44473327 315.25663849 388.22014689 312.62916861 388 310 C387.91433336 309.00179356 387.82866673 308.00358711 387.74040413 306.97513199 C386.76218439 293.78909277 386.8567666 280.60228885 386.86927533 267.38651311 C386.87156204 263.8045994 386.86803397 260.22269034 386.86529541 256.64077759 C386.86087543 249.64952053 386.86179669 242.65827427 386.86470805 235.66701681 C386.86697428 229.98853519 386.86726934 224.31005658 386.86618423 218.63157463 C386.866031 217.82085035 386.86587777 217.01012607 386.86571989 216.17483438 C386.86540015 214.52762366 386.86507594 212.88041293 386.8647473 211.23320221 C386.86190429 195.8347007 386.86516242 180.43620517 386.87054767 165.03770464 C386.87502737 151.81834634 386.87422793 138.59899682 386.86962891 125.37963867 C386.86428419 110.00976398 386.8621655 94.63989449 386.86524117 79.27001899 C386.86555972 77.63374229 386.86587409 75.99746559 386.86618423 74.36118889 C386.86633851 73.5561651 386.86649279 72.7511413 386.86665174 71.92172285 C386.86751626 66.24084438 386.86605568 60.55996922 386.86370468 54.87909126 C386.86090821 47.97057041 386.86164222 41.06206093 386.86698543 34.15354139 C386.86962255 30.62731094 386.87062713 27.10109949 386.86733627 23.57486916 C386.86383134 19.76190243 386.86800122 15.94896718 386.87301636 12.13600159 C386.87078564 11.00978049 386.86855491 9.8835594 386.86625659 8.72321039 C386.86886434 7.71045162 386.87147209 6.69769285 386.87415886 5.65424442 C386.87432121 4.77323285 386.87448356 3.89222128 386.87465084 2.98451239 C387 1 387 1 388 0 C389.82227687 -0.09643778 391.6483336 -0.12187371 393.47315979 -0.12025452 C395.25481537 -0.12231651 395.25481537 -0.12231651 397.07246399 -0.12442017 C399.04475227 -0.11902725 399.04475227 -0.11902725 401.05688477 -0.11352539 C402.44617714 -0.11324352 403.83546967 -0.11340125 405.22476196 -0.1139679 C409.00765289 -0.11425588 412.79051238 -0.10835901 416.57339597 -0.10139394 C420.52255677 -0.09516055 424.47171822 -0.09455661 428.42088318 -0.09336853 C435.90425075 -0.09025517 443.38760379 -0.08204172 450.87096494 -0.07201904 C459.38835733 -0.06085805 467.9057504 -0.05534749 476.42314827 -0.05032361 C493.94877394 -0.03985911 511.47438543 -0.02225958 529 0 C529.01710963 51.56315537 529.03303137 103.12631096 529.04234314 154.68946838 C529.0424812 155.45199834 529.04261925 156.21452829 529.04276149 157.00016521 C529.04575405 173.56995774 529.04852428 190.13975029 529.05106533 206.7095429 C529.05231272 214.83476363 529.05360927 222.95998436 529.05493164 231.08520508 C529.05512778 232.29807379 529.05512778 232.29807379 529.05532788 233.53544489 C529.05959311 259.76793517 529.06710731 286.00042329 529.07629722 312.23291227 C529.08571993 339.17871314 529.09188314 366.12451283 529.09391499 393.07031532 C529.09420317 396.87176257 529.0945288 400.67320981 529.09487724 404.47465706 C529.09494467 405.22287405 529.09501209 405.97109103 529.09508156 406.74198126 C529.09626562 418.81101953 529.10091 430.88005413 529.10683203 442.94909091 C529.11270505 455.06751325 529.11497156 467.18593195 529.11350138 479.30435567 C529.11280535 485.8764728 529.11387953 492.44858121 529.11920547 499.02069664 C529.12403735 505.02661064 529.12434006 511.03250648 529.12089889 517.03842128 C529.12047299 519.22146673 529.1217705 521.40451326 529.12488318 523.58755653 C529.12884358 526.53437876 529.12676564 529.48113369 529.12304783 532.42795467 C529.12567484 533.29327854 529.12830186 534.15860241 529.13100848 535.05014822 C529.1141458 540.8858542 529.1141458 540.8858542 528 542 C526.20195262 542.1073217 524.39967052 542.14410793 522.59844971 542.15390015 C521.42631927 542.16250061 520.25418884 542.17110107 519.04653931 542.17996216 C517.74888641 542.18422211 516.45123352 542.18848206 515.11425781 542.19287109 C513.74292796 542.200769 512.3716002 542.20903776 511.00027466 542.21765137 C506.48457841 542.24391172 501.96887271 542.25918487 497.453125 542.2734375 C495.90019474 542.27879589 494.34726454 542.2841734 492.79433441 542.28956985 C486.33480763 542.31120617 479.87528339 542.32994297 473.41572952 542.34119225 C464.1513543 542.35743054 454.88739862 542.39059629 445.62318158 542.44759309 C439.11358291 542.48627929 432.60409649 542.50582345 426.09438586 542.51111281 C422.20457155 542.5147687 418.31520427 542.52681379 414.42551422 542.55921555 C410.7646182 542.58927285 407.10444017 542.59561699 403.44344711 542.58383179 C401.46075477 542.58350554 399.4781069 542.60798807 397.49557495 542.63320923 C387.80648493 542.5651022 387.80648493 542.5651022 384.75372314 539.57295227 C384.17499451 538.72387802 383.59626587 537.87480377 383 537 C382.51724609 536.4222583 382.03449219 535.8445166 381.53710938 535.24926758 C381.14330078 534.71970459 380.74949219 534.1901416 380.34375 533.64453125 C379.88564941 533.03182373 379.42754883 532.41911621 378.95556641 531.7878418 C378.47522949 531.135979 377.99489258 530.48411621 377.5 529.8125 C376.98228027 529.11616455 376.46456055 528.4198291 375.93115234 527.70239258 C371.56698906 521.81385104 367.27600093 515.87260185 362.99584961 509.92285156 C356.73763452 501.22753864 350.36757424 492.61536659 344 484 C336.57940327 473.9598876 329.18803961 463.90202492 321.89428711 453.76928711 C317.9660112 448.31893063 313.99287964 442.90316826 310 437.5 C305.46248989 431.35983731 300.96033424 425.19645339 296.5 419 C289.74016251 409.61219227 282.87582656 400.30303505 276 391 C268.57878505 380.95905114 261.18828194 370.89933596 253.89208984 360.76708984 C247.66337597 352.12750396 241.33045986 343.5651506 235 335 C227.57940327 324.9598876 220.18803961 314.90202492 212.89428711 304.76928711 C208.96600587 299.31892323 204.99232408 293.90358473 201 288.5 C198.66522667 285.33439268 196.33222121 282.16748791 194 279 C193.4215332 278.2152832 192.84306641 277.43056641 192.24707031 276.62207031 C172.8175945 250.210638 158.4872123 221.27459592 143.97314453 191.97851562 C141.33008931 186.64500914 138.66666275 181.3217397 136 176 C136.10546143 176.89041992 136.21092285 177.78083984 136.31958008 178.69824219 C141.68450769 224.58685792 143.45945328 270.08811286 143.37413876 316.26492543 C143.36016581 324.03496608 143.3621539 331.80498305 143.36424746 339.57503305 C143.36740253 353.42341703 143.35595579 367.27174869 143.33618164 381.12011719 C143.31703637 394.53191708 143.31013852 407.94365617 143.31567383 421.35546875 C143.32172435 436.0586525 143.32157981 450.7618099 143.310188 465.46499145 C143.30898088 467.02867182 143.3077749 468.59235219 143.30657005 470.15603256 C143.30596651 470.92501489 143.30536298 471.69399721 143.30474115 472.48628203 C143.30086556 477.89851282 143.30125359 483.31073373 143.3031559 488.72296524 C143.30527132 495.28787583 143.30009935 501.85273327 143.28554235 508.41762884 C143.27828158 511.763965 143.27530118 515.11015808 143.27878571 518.45651054 C143.28198402 522.07502708 143.27298674 525.69330602 143.26069641 529.3117981 C143.26447573 530.37709751 143.26825506 531.44239693 143.27214891 532.53997815 C143.26631671 533.50262644 143.26048452 534.46527474 143.25447559 535.45709419 C143.25360882 536.29217038 143.25274204 537.12724657 143.251849 537.9876281 C143 540 143 540 141 542 C138.57026577 542.24888897 138.57026577 542.24888897 135.45127869 542.24723816 C134.27199295 542.25143265 133.09270721 542.25562714 131.87768555 542.25994873 C130.57734375 542.25432922 129.27700195 542.24870972 127.93725586 542.24291992 C126.55928965 542.2439924 125.18132388 542.24593058 123.80335999 542.24867249 C120.05555257 542.25352898 116.30786382 542.24585552 112.56007075 542.23571944 C108.6447492 542.22695349 104.72943153 542.22869609 100.81410217 542.2290802 C94.23924771 542.22814299 87.66443934 542.21945083 81.08959961 542.20581055 C73.47786707 542.1900779 65.86618501 542.18481263 58.25443739 542.1855461 C50.94377815 542.18615552 43.63313543 542.18105836 36.32248116 542.17275429 C33.20566237 542.1692152 30.08884943 542.16739015 26.97202873 542.16686058 C23.30557456 542.16585924 19.6391631 542.1597798 15.97272301 542.14969444 C13.97741508 542.14535941 11.9820984 542.14594265 9.98678589 542.14663696 C8.81031998 542.14237198 7.63385406 542.13810699 6.42173767 542.13371277 C4.8784046 542.131199 4.8784046 542.131199 3.30389309 542.12863445 C1 542 1 542 0 541 C-0.09903842 538.13478354 -0.1317477 535.29364583 -0.12304783 532.42795467 C-0.12420167 531.51339067 -0.12535552 530.59882666 -0.12654433 529.65654859 C-0.12921897 526.55144582 -0.12468191 523.44639354 -0.12025452 520.34129333 C-0.12069005 518.10891316 -0.12156461 515.87653303 -0.12284368 513.64415318 C-0.12509224 507.47815464 -0.12106245 501.31217328 -0.11606562 495.14617693 C-0.11220732 489.18942373 -0.1130248 483.23267176 -0.11374746 477.27591777 C-0.1150635 465.08503474 -0.11171188 452.89415713 -0.10573006 440.70327568 C-0.09981965 428.6270692 -0.09596545 416.55086497 -0.09487724 404.47465706 C-0.0948085 403.72471219 -0.09473976 402.97476732 -0.09466894 402.20209685 C-0.09433062 398.39374151 -0.09402923 394.58538617 -0.09374207 390.77703083 C-0.09163983 363.77949363 -0.08489738 336.78195937 -0.07543945 309.78442383 C-0.06625993 283.55135107 -0.05917391 257.31827912 -0.05493164 231.08520508 C-0.05480011 230.27705236 -0.05466859 229.46889963 -0.05453308 228.63625744 C-0.05321459 220.5206977 -0.05193877 212.40513796 -0.05069422 204.28957822 C-0.04815778 187.75620823 -0.04533653 171.2228383 -0.04234314 154.68946838 C-0.0421372 153.54912006 -0.0421372 153.54912006 -0.04192711 152.38573439 C-0.03272136 101.59048835 -0.01685483 50.79524402 0 0 Z " fill="#184797" transform="translate(1307,350)"/>
<path d="M0 0 C3.45670081 0.01609469 6.91223029 0.00002088 10.36889648 -0.01904297 C31.41063886 -0.03995801 52.38163566 1.66515493 72.96069336 6.20361328 C74.16322754 6.46150635 75.36576172 6.71939941 76.60473633 6.98510742 C86.92658621 9.25580413 97.01145156 12.01394167 107.02319336 15.39111328 C107.77616699 15.63909668 108.52914062 15.88708008 109.30493164 16.14257812 C156.51584082 31.8526413 200.6896459 62.79844927 231.02319336 102.39111328 C231.884539 103.49707573 232.74655201 104.60251864 233.60913086 105.70751953 C235.34670392 107.94000112 237.06901061 110.18287536 238.77709961 112.43798828 C240.09687306 114.17320347 241.43168896 115.89746827 242.80053711 117.59423828 C246.03263969 121.71270695 246.03263969 121.71270695 245.98852539 124.88085938 C244.61479544 128.45311314 242.82772041 128.97011376 239.39038086 130.55517578 C238.20347656 131.11414551 237.01657227 131.67311523 235.79370117 132.24902344 C234.49531263 132.83830476 233.19680716 133.42732852 231.89819336 134.01611328 C230.5675851 134.63586152 229.2378385 135.25746291 227.90893555 135.88085938 C225.2208802 137.13922026 222.52880922 138.38824772 219.83276367 139.62939453 C214.61841845 142.0336623 209.44691007 144.52592994 204.27319336 147.01611328 C202.41150291 147.90604044 200.54952263 148.79536153 198.68725586 149.68408203 C192.67062869 152.55808653 186.65902817 155.44251766 180.64819336 158.32861328 C179.61178711 158.82619141 178.57538086 159.32376953 177.50756836 159.83642578 C171.14977762 162.8891119 164.79257586 165.94302257 158.43579102 168.99780273 C156.34495879 170.00157652 154.2534974 171.00404092 152.16137695 172.00512695 C147.08252818 174.43570159 142.01307461 176.88249474 136.96069336 179.36767578 C136.00130859 179.83544434 135.04192383 180.30321289 134.0534668 180.78515625 C132.25078228 181.66433695 130.45169311 182.55094347 128.65698242 183.44628906 C127.85486328 183.8354248 127.05274414 184.22456055 126.22631836 184.62548828 C125.18459473 185.13934082 125.18459473 185.13934082 124.12182617 185.66357422 C121.60743398 186.53524578 119.66685607 186.64354255 117.02319336 186.39111328 C115.10131836 184.55517578 115.10131836 184.55517578 113.27319336 182.01611328 C109.13894862 176.51414848 104.71049402 171.42746824 100.02319336 166.39111328 C99.08733398 165.37404297 99.08733398 165.37404297 98.13256836 164.33642578 C76.85718061 142.0777218 45.54762276 127.40678236 14.70849609 126.26879883 C-27.46568021 125.37159127 -63.96059042 133.68225736 -95.47680664 163.51611328 C-129.96920362 198.99577029 -138.78511266 249.85716989 -138.16040039 297.41064453 C-137.19550665 341.64592854 -124.76819591 383.20694489 -94.97680664 416.39111328 C-94.40833008 417.04337891 -93.83985352 417.69564453 -93.25415039 418.36767578 C-73.36993523 439.82838882 -40.81129659 452.29049557 -11.98291016 453.56811523 C-10.52393653 453.59430853 -9.06484506 453.61444733 -7.60571289 453.62939453 C-6.81491333 453.63927902 -6.02411377 453.64916351 -5.20935059 453.65934753 C34.42703649 454.05213488 70.09819332 447.17659616 102.02319336 422.39111328 C103.25102539 421.44171875 103.25102539 421.44171875 104.50366211 420.47314453 C121.81839688 406.10038239 133.35131913 384.46503187 137.60595703 362.61157227 C137.74306847 361.91632195 137.8801799 361.22107162 138.02144623 360.50475311 C138.35724959 358.80057737 138.6904805 357.09589509 139.02319336 355.39111328 C137.91275256 355.39387866 137.91275256 355.39387866 136.77987862 355.39669991 C118.78693367 355.44082225 100.79399949 355.47394219 82.80101204 355.49473763 C74.09982488 355.50506081 65.39867378 355.51914099 56.69750977 355.54199219 C49.11571157 355.56189423 41.53393948 355.57482213 33.95211589 355.57929027 C29.93566652 355.58190307 25.91929185 355.58806578 21.90286636 355.60257339 C18.12562183 355.61610706 14.34848306 355.62034452 10.57121658 355.61732864 C9.18202643 355.6178807 7.79283289 355.62188323 6.40366364 355.62952423 C4.5126346 355.63941899 2.62154934 355.63590358 0.73049927 355.63162231 C-0.32956266 355.6334659 -1.3896246 355.63530949 -2.48180962 355.63720894 C-4.97680664 355.39111328 -4.97680664 355.39111328 -6.97680664 353.39111328 C-7.22569561 351.39866543 -7.22569561 351.39866543 -7.2240448 348.90538025 C-7.22823929 347.96169083 -7.23243378 347.0180014 -7.23675537 346.04571533 C-7.23113586 345.00719421 -7.22551636 343.9686731 -7.21972656 342.89868164 C-7.22162491 341.80759598 -7.22352325 340.71651031 -7.22547913 339.59236145 C-7.22919563 335.97182112 -7.21847086 332.35147965 -7.20727539 328.73095703 C-7.20608406 326.22514367 -7.20563033 323.71932986 -7.20588684 321.21351624 C-7.2043205 315.95685501 -7.19626045 310.70024543 -7.18261719 305.44360352 C-7.16688312 299.35875209 -7.16161934 293.27396382 -7.16235274 287.18909353 C-7.16296224 281.34355263 -7.15775677 275.49803304 -7.14956093 269.65249825 C-7.14636768 267.16088549 -7.14440533 264.66927086 -7.14366722 262.17765617 C-7.14151108 258.7031215 -7.13278288 255.22866782 -7.12207031 251.75415039 C-7.12275009 250.19333237 -7.12275009 250.19333237 -7.1234436 248.60098267 C-7.11917862 247.66011307 -7.11491364 246.71924347 -7.11051941 245.74986267 C-7.10884356 244.92745559 -7.10716772 244.1050485 -7.10544109 243.25771999 C-6.97680664 241.39111328 -6.97680664 241.39111328 -5.97680664 240.39111328 C-4.43477808 240.2932996 -2.88825969 240.26555818 -1.34313202 240.26527214 C0.16898149 240.26136052 0.16898149 240.26136052 1.71164274 240.25736988 C2.83253184 240.2596006 3.95342093 240.26183132 5.10827637 240.26412964 C6.28857186 240.26256965 7.46886735 240.26100966 8.68492937 240.25940239 C11.97581421 240.25608913 15.26664249 240.25730156 18.55752397 240.26038861 C22.10084627 240.26264086 25.64416344 240.25916398 29.18748474 240.25640869 C36.13467621 240.25195011 43.0818569 240.25292785 50.0290488 240.25582133 C55.67261079 240.25807502 61.31616975 240.25838804 66.95973206 240.25729752 C68.16221483 240.25706767 68.16221483 240.25706767 69.38899019 240.25683317 C71.01727593 240.25651346 72.64556167 240.25618925 74.2738474 240.25586058 C89.56068969 240.25300553 104.84752598 240.2562932 120.13436729 240.26166095 C133.26576934 240.26612901 146.39716256 240.26535308 159.52856445 240.26074219 C174.75879484 240.25539686 189.98901997 240.25328023 205.21925116 240.25635445 C206.84171899 240.25667302 208.46418683 240.25698739 210.08665466 240.25729752 C210.88504683 240.25745179 211.683439 240.25760607 212.50602487 240.25776502 C218.14615348 240.2586303 223.78627877 240.25716706 229.42640686 240.25481796 C236.29503377 240.25202023 243.16364925 240.25275766 250.03227484 240.25809871 C253.54017366 240.26073608 257.04805337 240.26174018 260.55595207 240.25844955 C264.35001576 240.25494418 268.14404781 240.25911505 271.93811035 240.26412964 C273.05899945 240.26189892 274.17988854 240.2596682 275.33474398 240.25736988 C276.34281965 240.25997762 277.35089532 240.26258537 278.38951874 240.26527214 C279.26651035 240.26543449 280.14350196 240.26559685 281.04706907 240.26576412 C283.02319336 240.39111328 283.02319336 240.39111328 284.02319336 241.39111328 C284.1817239 242.93475962 284.27449287 244.48524553 284.33959961 246.03564453 C284.38173584 247.01130371 284.42387207 247.98696289 284.46728516 248.9921875 C284.50635986 250.05195801 284.54543457 251.11172852 284.58569336 252.20361328 C284.62670166 253.29947754 284.66770996 254.3953418 284.70996094 255.52441406 C284.82528145 258.81307824 284.92796994 262.10180978 285.02319336 265.39111328 C285.04800781 266.23174316 285.07282227 267.07237305 285.09838867 267.93847656 C287.09935679 347.82458501 267.16004036 430.98386344 211.21264648 490.31103516 C203.60241757 498.2354118 195.80370825 505.76069883 187.02319336 512.39111328 C186.38575195 512.87789551 185.74831055 513.36467773 185.09155273 513.86621094 C174.24388984 522.10712935 163.12995856 529.15983951 151.02319336 535.39111328 C149.88333984 535.99536133 149.88333984 535.99536133 148.72045898 536.61181641 C123.94231756 549.67364367 96.5239379 557.59791776 69.02319336 562.39111328 C68.08040527 562.55546875 67.13761719 562.71982422 66.16625977 562.88916016 C-13.16031012 576.17440061 -102.36971055 565.88255763 -169.29711914 518.75732422 C-174.31568211 515.12236333 -179.18115516 511.31439594 -183.97680664 507.39111328 C-184.61279785 506.87081543 -185.24878906 506.35051758 -185.90405273 505.81445312 C-199.81746827 494.31484507 -212.96942574 481.72542278 -223.97680664 467.39111328 C-224.99013505 466.11688427 -226.00454057 464.84351139 -227.01977539 463.57080078 C-267.05993216 412.90592725 -287.25535225 348.21675822 -287.16430664 284.01611328 C-287.16370239 283.22531372 -287.16309814 282.43451416 -287.16247559 281.61975098 C-287.02927252 217.13322453 -267.92668556 154.82874824 -226.97680664 104.39111328 C-226.51016602 103.8087793 -226.04352539 103.22644531 -225.56274414 102.62646484 C-213.41274103 87.55178242 -199.47583897 73.02648999 -183.97680664 61.39111328 C-182.81695779 60.48092104 -181.65818434 59.56935746 -180.50024414 58.65673828 C-129.16452756 18.65010201 -64.63103282 -0.35579226 0 0 Z " fill="#184797" transform="translate(2884.976806640625,337.60888671875)"/>
<path d="M0 0 C1.09257111 0.00465271 2.18514221 0.00930542 3.31082153 0.01409912 C19.06126759 0.09263344 34.55344738 0.36806082 50.0625 3.375 C51.13290527 3.57899414 52.20331055 3.78298828 53.30615234 3.99316406 C77.15009303 8.66471326 99.8124771 15.64224654 122.0625 25.375 C122.80661133 25.69549316 123.55072266 26.01598633 124.31738281 26.34619141 C151.03629395 37.93991811 175.25695457 54.68722399 196.72265625 74.25390625 C198.85054815 76.18286335 201.00970859 78.06536353 203.1875 79.9375 C210.02720463 85.91019982 216.22991691 92.42369054 222.0625 99.375 C222.52285645 99.9215625 222.98321289 100.468125 223.45751953 101.03125 C235.39872476 115.26869584 245.85811612 130.23415926 255.0625 146.375 C255.42021484 146.9932666 255.77792969 147.6115332 256.14648438 148.24853516 C292.14751081 210.99179622 299.17453906 290.34598483 280.75 359.6875 C270.51697977 396.82288696 253.06997547 430.32790806 229.0625 460.375 C228.30453125 461.33921875 227.5465625 462.3034375 226.765625 463.296875 C220.63700022 470.83078954 213.90530012 477.74263698 207.0625 484.625 C206.14887695 485.54788818 205.23525391 486.47077637 204.29394531 487.42163086 C198.19113325 493.49662353 191.82931065 499.05280407 185.0625 504.375 C184.38316406 504.91366699 183.70382812 505.45233398 183.00390625 506.00732422 C165.60156775 519.66153749 146.86384507 530.58160748 127.0625 540.375 C126.32306152 540.7457666 125.58362305 541.1165332 124.82177734 541.49853516 C100.57674371 553.51473931 73.65960109 560.99366464 47.0625 565.375 C46.03833984 565.54999023 45.01417969 565.72498047 43.95898438 565.90527344 C14.56618204 570.72767928 -17.60691553 570.38648753 -46.9375 565.375 C-48.60135742 565.10091309 -48.60135742 565.10091309 -50.29882812 564.82128906 C-77.50433468 560.19589724 -104.23153872 551.71505641 -128.9375 539.375 C-129.77071777 538.96846191 -130.60393555 538.56192383 -131.46240234 538.14306641 C-150.23110055 528.94643937 -167.76691173 517.62418429 -183.9375 504.375 C-184.48438477 503.92962891 -185.03126953 503.48425781 -185.59472656 503.02539062 C-194.09997749 496.04598268 -202.00934516 488.50170999 -209.8125 480.75 C-210.68003906 479.89172607 -211.54757813 479.03345215 -212.44140625 478.14916992 C-218.36145284 472.20022571 -223.72917459 465.95190001 -228.9375 459.375 C-229.78513916 458.3243335 -229.78513916 458.3243335 -230.64990234 457.25244141 C-239.76981119 445.90774498 -247.58412233 433.92698509 -254.9375 421.375 C-255.32776367 420.71322754 -255.71802734 420.05145508 -256.12011719 419.36962891 C-278.3418051 381.22410473 -288.99905699 335.22294045 -289.9375 291.375 C-289.97746094 290.21871094 -290.01742187 289.06242187 -290.05859375 287.87109375 C-291.42712278 217.11009267 -265.64389323 146.24611813 -216.56011963 94.93511963 C-212.73965878 90.96571898 -208.87517044 87.04090274 -205 83.125 C-204.4596814 82.57496307 -203.91936279 82.02492615 -203.3626709 81.45822144 C-195.38954993 73.36372305 -187.00586943 66.21383942 -177.9375 59.375 C-177.20474854 58.81006836 -176.47199707 58.24513672 -175.71704102 57.66308594 C-125.65519346 19.12778645 -62.87015563 -0.480481 0 0 Z M-99.36328125 168.796875 C-129.83655321 201.05632453 -141.94405758 245.86117769 -141.125 289.34375 C-139.8727294 329.41640935 -128.31429163 366.66834977 -101.9375 397.375 C-101.17824219 398.28121094 -100.41898438 399.18742187 -99.63671875 400.12109375 C-78.61804829 424.37340582 -46.88230321 439.91526602 -14.9375 442.375 C1.18121351 443.15439119 17.32417798 443.25233636 33.0625 439.375 C33.76052734 439.20871094 34.45855469 439.04242187 35.17773438 438.87109375 C72.13341816 429.808392 100.85377807 404.16988012 120.25 372.1875 C128.91534453 357.35862092 134.50044993 341.12906107 138.0625 324.375 C138.30806641 323.25593262 138.30806641 323.25593262 138.55859375 322.11425781 C143.58434664 298.05502343 143.55937648 269.3372696 138.0625 245.375 C137.89621094 244.60849121 137.72992187 243.84198242 137.55859375 243.05224609 C132.31257935 219.33346061 122.42510738 197.25257195 107.0625 178.375 C106.60472168 177.81039062 106.14694336 177.24578125 105.67529297 176.6640625 C83.57403852 149.58984107 53.27630869 130.37656917 18.0625 126.375 C-27.74321072 121.89400656 -66.94595228 136.43174784 -99.36328125 168.796875 Z " fill="#184797" transform="translate(3512.9375,337.625)"/>
<path d="M0 0 C1.08120531 0.00436926 1.08120531 0.00436926 2.18425316 0.00882679 C3.3248459 0.00754515 3.3248459 0.00754515 4.48848093 0.00623763 C7.05583184 0.00458053 9.62311851 0.01010792 12.19046348 0.01555592 C14.02309998 0.01583777 15.8557366 0.0156801 17.68837303 0.01511341 C22.67989996 0.01482535 27.67140309 0.02072354 32.66292447 0.02768737 C37.87331041 0.0339194 43.08369683 0.03452459 48.29408592 0.03571278 C58.16802959 0.03882654 68.04196225 0.04704053 77.91590106 0.05706227 C89.15391935 0.06822202 100.39193815 0.07373351 111.6299606 0.0787577 C134.75421963 0.08922311 157.87846887 0.10682341 181.00271934 0.12908131 C191.69924178 29.97970201 191.69924178 29.97970201 196.26443809 43.35173756 C196.70177972 44.62791852 197.13931208 45.90403414 197.57701439 47.18009144 C198.48544538 49.82928324 199.39295113 52.47878887 200.29959434 55.12859303 C202.71022333 62.17334818 205.12796244 69.21566546 207.54568809 76.25798756 C207.78487339 76.95482781 208.02405868 77.65166806 208.27049202 78.36962467 C212.3098692 90.13614943 216.39010553 101.88795493 220.50271934 113.62908131 C226.67348796 131.25209476 232.75192302 148.90638414 238.81521934 166.56658131 C240.71345767 172.09529555 242.6117695 177.62398451 244.51053184 183.15251881 C244.74403784 183.83241179 244.97754383 184.51230477 245.21812576 185.21280056 C249.85519119 198.71276035 254.51690938 212.20412457 259.19021934 225.69158131 C259.73363472 227.25995243 259.73363472 227.25995243 260.28802818 228.86000782 C261.7489102 233.07615586 263.20980759 237.29229857 264.67082542 241.50839955 C268.95684081 253.87894815 273.22945222 266.25412458 277.50271934 278.62908131 C283.66212523 296.46493293 289.82842729 314.29837747 296.00271934 332.12908131 C304.55128512 356.81706617 313.08310731 381.51081832 321.61160606 406.20574147 C323.99291591 413.10088652 326.37469931 419.99586793 328.75662559 426.89080006 C329.34501968 428.59403935 329.34501968 428.59403935 329.94530052 430.33168751 C331.91231342 436.02558845 333.87943576 441.71945155 335.84671348 447.413261 C339.54091456 458.10560366 343.23412208 468.79828698 346.92392296 479.49214894 C348.65751687 484.51645891 350.39177219 489.54054055 352.12601036 494.56462818 C352.94871092 496.94848609 353.77114722 499.33243522 354.59329551 501.71648365 C355.36834741 503.96392584 356.14378628 506.21123461 356.9196505 508.45839649 C357.64467994 510.55899823 358.36855879 512.65999752 359.09115928 514.76143605 C360.57793382 519.07322456 362.07805271 523.37497601 363.68338341 527.64421803 C363.92763054 528.29901646 364.17187767 528.95381489 364.42352623 529.6284557 C365.04253293 531.27356722 365.67543171 532.91343472 366.30984825 534.55266529 C367.03851693 537.26219335 367.03180907 538.55045539 366.00271934 541.12908131 C364.25179569 542.88000497 361.8078009 542.25902769 359.4291262 542.26279408 C358.21900367 542.26705906 357.00888115 542.27132405 355.76208824 542.27571827 C354.4087862 542.27536871 353.0554842 542.27490715 351.70218223 542.27434498 C350.28657769 542.2773349 348.87097396 542.28073703 347.45537132 542.28452259 C343.60004297 542.29338388 339.74473678 542.2957016 335.88939923 542.29633838 C332.67600574 542.29728572 329.46261747 542.30096199 326.24922597 542.30451047 C318.67071654 542.31266313 311.09221899 542.31509397 303.51370567 542.31438404 C295.68443867 542.31378303 287.85524053 542.32433765 280.02599096 542.34012771 C273.31431451 542.35318371 266.60266061 542.35856876 259.89097154 542.35792863 C255.87789881 542.35767307 251.86488722 542.36055605 247.85182709 542.37110668 C244.07866249 542.38075515 240.3056179 542.38088938 236.53244919 542.37359005 C235.14487481 542.37254014 233.75729309 542.37493104 232.36973137 542.38095051 C230.48093454 542.38861586 228.59209721 542.38285115 226.70329612 542.37631947 C225.11515146 542.37713662 225.11515146 542.37713662 223.49492306 542.37797028 C221.00271934 542.12908131 221.00271934 542.12908131 219.00271934 540.12908131 C218.20288695 537.75428427 217.49576784 535.40957091 216.83548301 532.99578053 C216.62864387 532.26041065 216.42180473 531.52504078 216.20869774 530.76738697 C215.52318203 528.32453049 214.84703865 525.87917715 214.17068809 523.43376881 C213.69292804 521.72599644 213.21450909 520.01840828 212.73546165 518.31099659 C211.47075684 513.79775401 210.21362893 509.28243757 208.95846885 504.76653248 C206.96228878 497.58872122 204.95533268 490.4139205 202.94723266 483.23943669 C202.25298213 480.75461452 201.56229223 478.26882521 200.87214988 475.78285939 C200.43423631 474.213183 199.99623681 472.64353058 199.55813926 471.07390553 C199.37354149 470.40521443 199.18894371 469.73652333 198.99875206 469.04756886 C196.84264369 461.34636983 194.39193198 453.77456176 192.00271934 446.12908131 C123.36271934 445.79908131 54.72271934 445.46908131 -15.99728066 445.12908131 C-17.97728066 453.04908131 -17.97728066 453.04908131 -19.99728066 461.12908131 C-20.8222973 464.15029889 -21.65529106 467.16004805 -22.53097206 470.1657024 C-22.75267571 470.93535832 -22.97437935 471.70501423 -23.20280129 472.49799305 C-23.91504052 474.96707977 -24.63159091 477.43488408 -25.34884316 479.90251881 C-25.85407111 481.64603883 -26.35922718 483.38957969 -26.86431557 485.13314015 C-27.91266675 488.74895354 -28.96349135 492.36403747 -30.01583534 495.97869068 C-31.36509761 500.61484665 -32.70546384 505.2535258 -34.04378372 509.89285046 C-35.07908036 513.47652727 -36.12024345 517.05847955 -37.1630941 520.63996464 C-37.66040106 522.35141665 -38.15557547 524.06348982 -38.64857537 525.77618748 C-39.33369 528.1539614 -40.02695803 530.52920676 -40.72237831 532.90398365 C-40.92397057 533.61036473 -41.12556282 534.3167458 -41.33326393 535.04453236 C-42.76895996 539.90076062 -42.76895996 539.90076062 -44.99728066 542.12908131 C-47.48669106 542.38076359 -47.48669106 542.38076359 -50.69112831 542.38304859 C-52.5083741 542.39150807 -52.5083741 542.39150807 -54.36233193 542.40013844 C-55.71200293 542.39624949 -57.06167335 542.39215313 -58.41134316 542.38787037 C-59.82709613 542.39057924 -61.2428477 542.39413958 -62.65859658 542.39849049 C-66.50976425 542.40762924 -70.3608251 542.40406416 -74.21199471 542.39773232 C-78.23629224 542.39267999 -82.26058043 542.39736163 -86.28487831 542.40050465 C-93.0438469 542.40414654 -99.80277182 542.39933937 -106.56173378 542.3898235 C-114.38364399 542.37893851 -122.20544995 542.38246393 -130.02735764 542.39347631 C-136.73481379 542.40254285 -143.4422385 542.40383757 -150.14969879 542.39859897 C-154.15939598 542.39547577 -158.16904411 542.39507947 -162.17873818 542.40167195 C-165.94782333 542.40743561 -169.71677366 542.40346662 -173.48584419 542.39188343 C-174.87180281 542.38923158 -176.25777271 542.39001086 -177.64372689 542.39440876 C-179.53029156 542.39984471 -181.41688094 542.39183069 -183.303433 542.38304859 C-184.3608973 542.38229454 -185.41836159 542.38154049 -186.50787026 542.38076359 C-188.99728066 542.12908131 -188.99728066 542.12908131 -190.99728066 540.12908131 C-190.61037949 535.35010282 -189.03473425 530.97539819 -187.42696816 526.49236256 C-187.15851082 525.73015904 -186.89005348 524.96795552 -186.61346108 524.18265492 C-186.02039253 522.49965725 -185.42521 520.81740344 -184.82821327 519.13579518 C-183.12551222 514.33687868 -181.44104514 509.53155864 -179.75509316 504.72673756 C-179.38303749 503.66735981 -179.01098183 502.60798207 -178.62765175 501.51650196 C-173.84611358 487.88035134 -169.17030767 474.20786898 -164.4869352 460.53777653 C-162.24952683 454.00785953 -160.01009663 447.47863538 -157.77071816 440.94939381 C-157.52511399 440.23323462 -157.27950981 439.51707543 -157.02646309 438.77921444 C-152.16234406 424.59704158 -147.27257344 410.42379634 -142.37228066 396.25408131 C-135.7317524 377.05107426 -129.10802764 357.84235571 -122.49728066 338.62908131 C-115.45751763 318.16941018 -108.4040569 297.71452614 -101.33431679 277.26518971 C-96.76976081 264.06162405 -92.21231537 250.85564882 -87.66915566 237.64470631 C-87.21726177 236.3307363 -86.76536764 235.01676637 -86.31347328 233.70279652 C-85.40901189 231.07283134 -84.50456678 228.44286057 -83.6001249 225.81288868 C-83.37669663 225.16320496 -83.15326836 224.51352123 -82.92306954 223.84415013 C-82.47302071 222.53549156 -82.02298305 221.22682915 -81.57295662 219.91816288 C-75.49880491 202.25542762 -69.38705017 184.60645015 -63.21590859 166.97734791 C-58.25431249 152.79837646 -53.38947142 138.58798739 -48.55813271 124.36415821 C-43.63557672 109.87584218 -38.62650011 95.41967705 -33.56884438 80.9780193 C-27.98970226 65.04175987 -22.51791295 49.07029373 -17.09493691 33.08025318 C-14.30202375 24.84912501 -11.49537067 16.62304754 -8.62618691 8.41814381 C-8.37505638 7.6939626 -8.12392586 6.96978138 -7.86518532 6.22365528 C-5.68186412 0.01740702 -5.68186412 0.01740702 0 0 Z M88.00271934 92.12908131 C82.14549508 110.01228278 76.90016692 128.05808514 71.70093483 146.14006382 C70.50479173 150.2970357 69.30489647 154.45292376 68.10501426 158.60881764 C67.86026076 159.45655593 67.61550726 160.30429423 67.36333698 161.17772156 C66.86371195 162.90817992 66.36406882 164.63863306 65.86440796 166.36908108 C65.10436186 169.00170951 64.34467124 171.6344403 63.58504051 174.26718861 C58.66736907 191.30785661 53.71662589 208.3388425 48.75665611 225.36724049 C47.55884037 229.47960671 46.36194954 233.59224145 45.16531605 237.70495182 C40.47423463 253.82642815 35.76917288 269.94361147 31.02580017 286.0497871 C30.33978768 288.37995362 29.65446538 290.71032183 28.96943992 293.0407787 C28.74852086 293.79234336 28.52760179 294.54390803 28.29998821 295.31824738 C27.86148774 296.81013427 27.42302532 298.30203235 26.98460239 299.79394203 C25.72428514 304.08098887 24.45903626 308.36653988 23.18995041 312.65099865 C22.60377499 314.63286343 22.02001746 316.6154207 21.43735069 318.59831959 C20.73326268 320.99417188 20.02522061 323.38886715 19.31247276 325.78215748 C19.00537376 326.83145436 18.69827476 327.88075123 18.38186973 328.96184498 C18.11370949 329.86940037 17.84554924 330.77695576 17.56926292 331.71201283 C16.85058081 334.36439334 16.85058081 334.36439334 17.00271934 338.12908131 C19.63497297 339.44520812 21.59576442 339.26098973 24.54471153 339.2695232 C25.72255211 339.27523335 26.90039268 339.28094349 28.1139254 339.28682667 C30.06208153 339.28850346 30.06208153 339.28850346 32.04959434 339.29021412 C33.42593847 339.29484142 34.80228132 339.29986596 36.17862266 339.30525929 C39.92232028 339.31839108 43.66599997 339.32482939 47.40971702 339.32926995 C49.7465064 339.33219852 52.08329084 339.33630285 54.42007774 339.34077412 C61.72538681 339.35444913 69.03068464 339.3641166 76.33600563 339.36797601 C84.78055164 339.37246139 93.22493617 339.39003137 101.66943306 339.4189766 C108.19004855 339.44055501 114.71061846 339.45067817 121.2312693 339.45201713 C125.12922947 339.45306764 129.02703784 339.45902754 132.92496055 339.47683674 C136.58901774 339.493252 140.25280793 339.49550517 143.91688865 339.48669773 C145.90844984 339.48555384 147.9000019 339.49932043 149.89151329 339.51345021 C151.65827415 339.50509648 151.65827415 339.50509648 153.46072716 339.49657398 C154.48869407 339.49804054 155.51666099 339.49950711 156.57577842 339.50101811 C157.77711418 339.31690939 157.77711418 339.31690939 159.00271934 339.12908131 C161.33876298 336.35911822 161.33876298 336.35911822 160.59402794 333.53960377 C160.28288048 332.4934087 159.97173301 331.44721363 159.65115684 330.36931568 C159.12546104 328.56599781 159.12546104 328.56599781 158.58914512 326.72624928 C158.18555648 325.39171008 157.78174022 324.05723971 157.37771934 322.72283131 C156.96362801 321.32034365 156.55073351 319.91750215 156.13894981 318.51433522 C155.24643115 315.48244718 154.34558035 312.45320518 153.43826622 309.42571217 C151.98334053 304.57084767 150.54645269 299.71075875 149.11209434 294.84978443 C147.09674367 288.02549238 145.07359974 281.20355671 143.04568809 274.38298756 C140.15553511 264.65884786 137.29238563 254.92692281 134.44021934 245.19158131 C134.21515268 244.4234442 133.99008602 243.65530709 133.75819916 242.86389309 C132.85112141 239.7678503 131.94418517 236.67176614 131.03754085 233.57559639 C129.45110014 228.15816423 127.86223924 222.74144641 126.27200645 217.32512623 C118.5969006 191.1819175 110.95927214 165.02782758 103.33783859 138.86892468 C102.33644589 135.43193449 101.33417043 131.99520855 100.32953209 128.55916554 C98.5038291 122.31093228 96.69450406 116.05877642 94.92410606 109.79460865 C94.60247993 108.66544529 94.2808538 107.53628193 93.94948143 106.3729015 C93.35314015 104.2765375 92.76296598 102.17840557 92.18010277 100.07825428 C91.92039192 99.16907749 91.66068107 98.25990071 91.3931002 97.32317311 C91.0602124 96.13609005 91.0602124 96.13609005 90.72059959 94.92502552 C90.15271241 92.92718522 90.15271241 92.92718522 88.00271934 92.12908131 Z " fill="#184797" transform="translate(887.9972806572914,349.8709186911583)"/>
<path d="M0 0 C0.65763161 -0.00145344 1.31526322 -0.00290688 1.99282306 -0.00440437 C4.22392392 -0.00808988 6.45495755 -0.00456623 8.68605804 -0.0011425 C10.29075611 -0.00229332 11.89545391 -0.00388057 13.50015116 -0.00586975 C17.93118049 -0.01006854 22.36218846 -0.00796991 26.7932179 -0.00488353 C31.563545 -0.00263187 36.33386828 -0.00610786 41.10419464 -0.00886345 C50.45773202 -0.01332267 59.8112614 -0.01234401 69.16479909 -0.00945081 C76.76297597 -0.00719737 84.36115059 -0.00688399 91.9593277 -0.00797462 C93.03851901 -0.00812786 94.11771032 -0.00828109 95.22960439 -0.00843897 C97.42159013 -0.00875868 99.61357587 -0.00908289 101.8055616 -0.00941156 C122.38591563 -0.01226679 142.96626522 -0.00897865 163.54661852 -0.00361119 C181.22619792 0.00085689 198.90577076 0.00008097 216.58535004 -0.00452995 C237.08935132 -0.00987495 257.59334871 -0.0119921 278.0973506 -0.00891769 C280.28151671 -0.00859912 282.46568282 -0.00828475 284.64984894 -0.00797462 C286.26205373 -0.00774321 286.26205373 -0.00774321 287.90682831 -0.00750712 C295.500623 -0.00664174 303.09441523 -0.00810529 310.68820953 -0.01045418 C319.93569249 -0.01325155 329.18316695 -0.01251525 338.43064892 -0.00717343 C343.15370598 -0.00453556 347.87674886 -0.00353279 352.59980583 -0.00682259 C356.91624804 -0.0097838 361.2326628 -0.00819568 365.54910249 -0.00284503 C367.11772038 -0.0017201 368.68634056 -0.0023137 370.25495702 -0.00472082 C372.37306408 -0.00772395 374.49107478 -0.00468125 376.60917664 0 C377.78994451 0.00016235 378.97071239 0.0003247 380.1872611 0.00049198 C382.80458832 0.12584114 382.80458832 0.12584114 383.80458832 1.12584114 C383.90067494 2.77074664 383.92646619 4.41979805 383.92484283 6.06750679 C383.92690483 7.67246513 383.92690483 7.67246513 383.92900848 9.30984688 C383.92541321 10.49379539 383.92181793 11.67774391 383.91811371 12.89756966 C383.91825974 14.13641914 383.91840576 15.37526863 383.91855621 16.65165901 C383.91797723 20.05853947 383.91294791 23.46535998 383.90598226 26.87222981 C383.89974825 30.42900941 383.89914488 33.98578972 383.89795685 37.54257393 C383.89484367 44.28220696 383.88663047 51.02182385 383.87660736 57.76144975 C383.8654458 65.43242512 383.85993566 73.10340125 383.85491192 80.77438271 C383.84444784 96.55821155 383.82684866 112.34202427 383.80458832 128.12584114 C381.35640624 129.34993218 379.78360272 129.24897695 377.04637909 129.24609566 C376.04234543 129.24747032 375.03831177 129.24884499 374.00385284 129.25026131 C372.89830551 129.24666603 371.79275818 129.24307076 370.65370941 129.23936653 C369.49274246 129.23951256 368.33177551 129.23965858 367.13562775 129.23980904 C363.28307502 129.23911017 359.43057014 129.23131895 355.57802582 129.22349739 C352.91287402 129.22163312 350.24772491 129.22016009 347.58257294 129.21920967 C341.27504747 129.21609859 334.96753928 129.2078882 328.66002142 129.19786018 C321.47994477 129.18669213 314.29986729 129.18118685 307.11978412 129.17616475 C292.34804333 129.16570541 277.57631613 129.14811028 262.80458832 129.12584114 C262.80534776 129.99474523 262.8061072 130.86364932 262.80688965 131.75888383 C262.85160239 183.20612592 262.88593944 234.65336596 262.90671898 286.10062357 C262.90922052 292.27178988 262.91180916 298.44295614 262.9144516 304.61412239 C262.91523853 306.45704947 262.91523853 306.45704947 262.91604136 308.33720739 C262.92475459 328.25599711 262.94052959 348.17477534 262.95889391 368.09355824 C262.97756746 388.5174113 262.98869964 408.94125833 262.99276531 429.36511958 C262.99551566 441.97750534 263.00421628 454.58985863 263.02042125 467.2022344 C263.03095676 475.83970077 263.03419677 484.47715024 263.03159107 493.11462258 C263.0303044 498.10514932 263.03233828 503.09561913 263.04299927 508.08613586 C263.0526743 512.64818022 263.05326099 517.21012893 263.04638611 521.77217753 C263.04553542 523.42900084 263.04812103 525.08582993 263.05435468 526.74264173 C263.06229596 528.98221612 263.05810714 531.22143805 263.05068398 533.46100616 C263.05144342 534.70876717 263.05220286 535.95652817 263.05298531 537.24210012 C262.80458832 540.12584114 262.80458832 540.12584114 260.80458832 542.12584114 C258.29956055 542.37752342 258.29956055 542.37752342 255.07277679 542.37980843 C253.24290977 542.3882679 253.24290977 542.3882679 251.37607574 542.39689827 C250.01695956 542.39300932 248.65784395 542.38891296 247.29872894 542.3846302 C245.87312389 542.38733906 244.44752024 542.39089939 243.02191925 542.39525032 C239.14389317 542.40438921 235.26597318 542.40082393 231.38794518 542.39449215 C227.33562045 542.38943989 223.28330499 542.39412144 219.23097992 542.39726448 C212.424933 542.40090639 205.61892944 542.39609914 198.8128891 542.38658333 C190.93644756 542.37569833 183.06010955 542.37922375 175.18367052 542.39023614 C168.42950569 542.39930262 161.67537208 542.40059743 154.92120314 542.3953588 C150.88356039 542.39223557 146.84596636 542.39183939 142.80832672 542.39843178 C139.01297709 542.40419535 135.21776135 542.40022661 131.42242622 542.38864326 C130.02679225 542.38599136 128.63114707 542.38677077 127.2355175 542.39116859 C125.33581562 542.39660436 123.4360892 542.38859069 121.53639984 542.37980843 C119.93914188 542.37867735 119.93914188 542.37867735 118.30961609 542.37752342 C115.80458832 542.12584114 115.80458832 542.12584114 113.80458832 540.12584114 C113.55619133 537.24210012 113.55619133 537.24210012 113.55849266 533.46100616 C113.55618497 532.76477689 113.55387728 532.06854762 113.55149966 531.35122049 C113.54616359 528.99478074 113.55521337 526.63860882 113.56407928 524.28218269 C113.56320795 522.58516298 113.56145831 520.88814352 113.55890095 519.19112551 C113.55440917 514.50956327 113.56245612 509.82809179 113.57245708 505.14654112 C113.58106303 500.10494766 113.57817345 495.06335967 113.57665253 490.02176094 C113.57560186 481.28078045 113.58189739 472.53982973 113.5931282 463.79885674 C113.6093557 451.16075108 113.61458839 438.52265987 113.61710419 425.88454492 C113.62148562 405.38196102 113.63480686 384.87939299 113.65370941 364.3768177 C113.67205663 344.45592008 113.68621879 324.53502676 113.69472504 304.61412239 C113.69525048 303.38699266 113.69577593 302.15986292 113.6963173 300.89554743 C113.6989273 294.73963545 113.70145474 288.58372342 113.70394111 282.42781138 C113.72468756 231.32714366 113.75992526 180.22649317 113.80458832 129.12584114 C113.19313776 129.12768473 112.5816872 129.12952831 111.95170784 129.13142776 C97.08821712 129.17555599 82.22473271 129.20867292 67.3611927 129.22946548 C60.17335536 129.23978733 52.98556169 129.25386494 45.79775238 129.27672005 C39.53439696 129.29662621 33.27107315 129.30955097 27.00768697 129.31401813 C23.68986723 129.31663024 20.3721593 129.32382945 17.05436325 129.33730125 C13.35467572 129.35173183 9.65517817 129.35382262 5.95546722 129.35289192 C4.84991989 129.36008247 3.74437256 129.36727303 2.60532379 129.37468147 C1.60129013 129.37193214 0.59725647 129.36918282 -0.43720245 129.36635017 C-1.31290579 129.36819376 -2.18860912 129.37003735 -3.09084892 129.3719368 C-5.19541168 129.12584114 -5.19541168 129.12584114 -7.19541168 127.12584114 C-7.44430065 124.9147501 -7.44430065 124.9147501 -7.44264984 122.10861397 C-7.44684433 121.04712639 -7.45103882 119.98563881 -7.45536041 118.89198494 C-7.44974091 117.72255348 -7.4441214 116.55312202 -7.4383316 115.34825325 C-7.44022995 114.1206176 -7.4421283 112.89298195 -7.44408417 111.62814522 C-7.44716018 108.25631234 -7.4412689 104.88472325 -7.43113112 101.51291919 C-7.42236325 97.98997882 -7.42410781 94.46704275 -7.42449188 90.9440937 C-7.42355477 85.02833529 -7.41486384 79.1126281 -7.40122223 73.19688606 C-7.38548895 66.34859425 -7.38022435 59.50035854 -7.38095778 52.65204996 C-7.38156724 46.07395009 -7.37646983 39.49586857 -7.36816597 32.9177742 C-7.36462726 30.113557 -7.36280189 27.30934628 -7.36227226 24.50512695 C-7.36108511 20.59474246 -7.35138879 16.68440507 -7.34067535 12.7740345 C-7.34112854 11.60257881 -7.34158173 10.43112312 -7.34204865 9.22416878 C-7.33778366 8.16550102 -7.33351868 7.10683327 -7.32912445 6.01608467 C-7.32744861 5.09043677 -7.32577276 4.16478888 -7.32404613 3.21109104 C-7.05080029 -1.21840547 -3.72058057 0.00051157 0 0 Z " fill="#184797" transform="translate(1915.195411682129,349.87415885925293)"/>
<path d="M0 0 C3.08319146 2.70893123 6.08262916 5.49830153 9.04882812 8.33447266 C10.42999743 9.64718887 11.83412723 10.93562068 13.23925781 12.22265625 C41.19203238 38.67651392 60.05981649 80.65194254 61.63745117 119.13525391 C61.72327923 122.59876936 61.77335002 126.05817179 61.79223633 129.52246094 C61.80356624 130.95290162 61.82370162 132.38330684 61.85375977 133.81347656 C62.39454968 159.71096887 54.94543423 183.88043108 47.6552887 208.44016266 C46.3101583 212.98412157 44.98185956 217.53299577 43.65234375 222.08154297 C41.69081351 228.78828487 39.72515448 235.493787 37.75408936 242.19773293 C34.17456595 254.37497648 30.63313482 266.56291518 27.11425781 278.7578125 C26.85258505 279.66464594 26.59091228 280.57147938 26.32131004 281.50579262 C24.99487813 286.10343958 23.66914594 290.70128795 22.34371948 295.29922485 C20.74336728 300.85007282 19.1402161 306.40010984 17.53637695 311.94995117 C11.96473901 331.23056413 6.39993952 350.51313437 0.84270859 369.79790497 C-1.07013862 376.43524468 -2.98384452 383.07233688 -4.89753151 389.70943451 C-6.4313885 395.02958484 -7.96458434 400.34992384 -9.49621582 405.67071533 C-12.93351621 417.6108044 -16.38142274 429.54770044 -19.85375214 441.4776535 C-20.46495156 443.58028611 -21.07372008 445.68360549 -21.68170166 447.78717041 C-22.64961612 451.12556908 -23.62973331 454.46001769 -24.61621094 457.79296875 C-24.8760527 458.69585129 -25.13589447 459.59873383 -25.40361023 460.52897644 C-25.64303848 461.32612564 -25.88246674 462.12327484 -26.12915039 462.94458008 C-26.32515335 463.61040604 -26.52115631 464.27623199 -26.72309875 464.9622345 C-27.67397794 467.09449831 -28.6828448 468.25173808 -30.50292969 469.7109375 C-33.9385241 470.48098452 -35.2656792 470.7484451 -38.50292969 469.7109375 C-42.04111004 466.81959085 -44.70918821 463.3080489 -47.50292969 459.7109375 C-48.40160105 458.57857849 -49.3013762 457.44709476 -50.20214844 456.31640625 C-52.08931376 453.93603085 -53.96104459 451.54448095 -55.82324219 449.14453125 C-58.8378192 445.26665983 -61.94581031 441.46946124 -65.06542969 437.67578125 C-72.10846586 429.10901129 -79.12063098 420.51939072 -85.94042969 411.7734375 C-90.69543995 405.67742823 -95.59322587 399.70618183 -100.52001953 393.74853516 C-104.18665737 389.31401505 -107.81388085 384.85284405 -111.39355469 380.34765625 C-114.17818652 376.86686645 -116.99867941 373.41574967 -119.81542969 369.9609375 C-123.90870282 364.93742841 -127.95669488 359.88419851 -131.94042969 354.7734375 C-136.69531806 348.67733662 -141.59322934 342.70617763 -146.52001953 336.74853516 C-150.18665737 332.31401505 -153.81388085 327.85284405 -157.39355469 323.34765625 C-160.17818652 319.86686645 -162.99867941 316.41574967 -165.81542969 312.9609375 C-169.90870282 307.93742841 -173.95669488 302.88419851 -177.94042969 297.7734375 C-182.69531806 291.67733662 -187.59322934 285.70617763 -192.52001953 279.74853516 C-196.18665737 275.31401505 -199.81388085 270.85284405 -203.39355469 266.34765625 C-205.62168742 263.56249033 -207.8725335 260.79680731 -210.12670898 258.03271484 C-246.10184332 213.89725294 -269.23767389 168.53832798 -263.48510742 109.85375977 C-259.75267394 75.59655136 -246.1595907 43.696123 -223.50292969 17.7109375 C-223.07898926 17.21996582 -222.65504883 16.72899414 -222.21826172 16.22314453 C-215.88542351 8.92777045 -209.24159645 2.54887909 -201.50292969 -3.2890625 C-200.70371094 -3.89234375 -199.90449219 -4.495625 -199.08105469 -5.1171875 C-140.4914648 -47.62336056 -55.62279775 -47.70766278 0 0 Z M-154.30761719 82.11328125 C-166.90679805 97.02156466 -173.18927117 114.59675723 -172.37792969 134.2109375 C-170.87075039 150.92850096 -164.59221594 165.19994788 -153.50292969 177.7109375 C-152.9834375 178.32453125 -152.46394531 178.938125 -151.92871094 179.5703125 C-140.08878975 192.57334937 -122.30654602 199.68669656 -105.08105469 200.96484375 C-84.66532205 201.63244682 -66.47278888 194.72881837 -51.50292969 180.7109375 C-38.40805917 168.18029839 -30.61372668 150.94046902 -30.21020508 132.83447266 C-30.05347808 112.53735914 -36.19633037 94.59348688 -50.50292969 79.7109375 C-60.86747911 69.59355539 -74.26820958 62.50489272 -88.50292969 59.7109375 C-89.65792969 59.4840625 -90.81292969 59.2571875 -92.00292969 59.0234375 C-115.90263194 56.88953551 -137.58705184 64.64358663 -154.30761719 82.11328125 Z " fill="#F47321" transform="translate(741.5029296875,36.2890625)"/>
<path d="M0 0 C1.23536499 -0.00426498 2.47072998 -0.00852997 3.74353027 -0.01292419 C5.12516788 -0.01257463 6.50680546 -0.01211307 7.88844299 -0.0115509 C9.33360379 -0.0145408 10.77876379 -0.01794293 12.22392273 -0.02172852 C16.15982694 -0.03058999 20.09570943 -0.03290753 24.03162265 -0.0335443 C27.31211995 -0.03449162 30.59261215 -0.03816787 33.87310749 -0.0417164 C41.60983001 -0.04986912 49.34654089 -0.05229989 57.08326721 -0.05158997 C65.07612834 -0.05098895 73.06892203 -0.06154365 81.06176609 -0.07733363 C87.9135687 -0.09038937 94.76534923 -0.09577469 101.61716419 -0.09513456 C105.71407345 -0.09487899 109.81092282 -0.09776237 113.90781975 -0.10831261 C117.75977804 -0.11796063 121.61161877 -0.1180956 125.46358109 -0.11079597 C126.88018146 -0.10974601 128.29678902 -0.11213728 129.713377 -0.11815643 C131.64158568 -0.12582103 133.56983403 -0.12005743 135.49804688 -0.11352539 C136.57893302 -0.11407016 137.65981916 -0.11461493 138.77345943 -0.1151762 C141.31251526 0.13371277 141.31251526 0.13371277 143.31251526 2.13371277 C143.56321359 4.3675375 143.56321359 4.3675375 143.56419754 7.21560669 C143.56941303 8.29820802 143.57462853 9.38080935 143.58000207 10.49621677 C143.57554063 11.69522082 143.57107918 12.89422487 143.56648254 14.12956238 C143.57116252 16.0288608 143.57116252 16.0288608 143.57593703 17.96652889 C143.58432186 21.49267254 143.58014315 25.01870858 143.5739646 28.54485273 C143.5694561 32.34312658 143.57641586 36.14138138 143.58192444 39.93965149 C143.59083729 47.38503098 143.58888804 54.83037025 143.58309916 62.27575135 C143.57859009 68.32450838 143.57796648 74.3732541 143.58014679 80.42201233 C143.58045326 81.28152589 143.58075972 82.14103945 143.58107547 83.02659887 C143.5817149 84.77245434 143.58236332 86.51830982 143.58302066 88.26416528 C143.58872949 104.65124079 143.58215739 121.03829396 143.57141992 137.42536581 C143.56248391 151.49905776 143.5640358 165.57271672 143.57325745 179.64640808 C143.58395032 195.97316437 143.58818012 212.29990105 143.58203292 228.62666035 C143.58139579 230.36624463 143.58076705 232.10582892 143.58014679 233.84541321 C143.57968396 235.12941738 143.57968396 235.12941738 143.57921179 236.43936104 C143.57748189 242.48379449 143.58040627 248.52821556 143.5851059 254.57264709 C143.59070383 261.93457115 143.58922129 269.29645254 143.57854441 276.65837169 C143.57327297 280.4175519 143.57125583 284.17666086 143.57784271 287.93584061 C143.5848621 292.00324403 143.57650483 296.07046611 143.56648254 300.13786316 C143.57317471 301.93636923 143.57317471 301.93636923 143.58000207 303.77120876 C143.57217883 305.39511075 143.57217883 305.39511075 143.56419754 307.05181885 C143.56387284 307.99168168 143.56354813 308.93154451 143.56321359 309.89988804 C143.31251526 312.13371277 143.31251526 312.13371277 141.31251526 314.13371277 C138.77345943 314.38260174 138.77345943 314.38260174 135.49804688 314.38095093 C134.25986206 314.38514542 133.02167725 314.3893399 131.74597168 314.3936615 C130.36637801 314.38817764 128.98678511 314.38249465 127.60719299 314.37663269 C126.16026219 314.37770514 124.7133318 314.37964326 123.2664032 314.38238525 C119.33058738 314.38724228 115.39488452 314.3795676 111.45908237 314.36943221 C107.34757023 314.36066708 103.2360618 314.36240885 99.12454224 314.36279297 C92.22013959 314.36185572 85.31578083 314.35316303 78.41139221 314.33952332 C70.41793922 314.32379094 62.42453429 314.31852539 54.43106693 314.31925887 C46.75412796 314.31986828 39.07720472 314.31477123 31.40027046 314.30646706 C28.12715088 314.3029278 24.85403686 314.30110289 21.58091545 314.30057335 C17.73060839 314.29957205 13.88034202 314.29349303 10.03004837 314.28340721 C8.61303138 314.28047554 7.1960097 314.27925818 5.77898979 314.27983475 C3.85265548 314.28032212 1.92632289 314.27407599 0 314.26742554 C-1.08050912 314.26574969 -2.16101824 314.26407385 -3.27427006 314.26234722 C-5.68748474 314.13371277 -5.68748474 314.13371277 -6.68748474 313.13371277 C-6.78558283 311.47178554 -6.81304043 309.80565852 -6.81332588 308.14083862 C-6.81593363 307.05264485 -6.81854138 305.96445108 -6.82122815 304.84328175 C-6.81899742 303.63290084 -6.8167667 302.42251993 -6.81446838 301.17546082 C-6.81602837 299.90124362 -6.81758837 298.62702642 -6.81919563 297.31419659 C-6.82339338 293.76108668 -6.82129627 290.20800343 -6.81820941 286.6548934 C-6.81595733 282.82936002 -6.81943396 279.0038314 -6.82218933 275.17829895 C-6.82664809 267.67764797 -6.82567009 260.17700698 -6.82277669 252.6763556 C-6.82052307 246.5832322 -6.82020995 240.49011161 -6.82130051 234.39698792 C-6.82145374 233.53149942 -6.82160697 232.66601093 -6.82176485 231.77429551 C-6.82208456 230.01635877 -6.82240877 228.25842204 -6.82273744 226.5004853 C-6.82559254 209.99613535 -6.82230474 193.49179094 -6.81693707 176.9874419 C-6.81246901 162.8099591 -6.81324493 148.63248448 -6.81785583 134.45500183 C-6.82320107 118.01180416 -6.82531785 101.56861136 -6.82224357 85.12541294 C-6.821925 83.3737545 -6.82161063 81.62209606 -6.82130051 79.87043762 C-6.82114623 79.00847092 -6.82099196 78.14650422 -6.82083301 77.25841731 C-6.8199677 71.16894552 -6.82143102 65.07947681 -6.82378006 58.99000549 C-6.82657769 51.57424175 -6.82584058 44.15848861 -6.82049932 36.74272609 C-6.8178618 32.95534097 -6.81685808 29.16797354 -6.82014847 25.38058853 C-6.82365348 21.28436503 -6.81948328 17.18818663 -6.81446838 13.09196472 C-6.81669911 11.88158381 -6.81892983 10.67120291 -6.82122815 9.42414379 C-6.8186204 8.33595002 -6.81601265 7.24775625 -6.81332588 6.12658691 C-6.81316353 5.17972676 -6.81300118 4.23286661 -6.81283391 3.25731373 C-6.55819827 -1.05659203 -3.68492254 0.00571523 0 0 Z " fill="#184797" transform="translate(2376.687484741211,577.8662872314453)"/>
<path d="M0 0 C42.73409962 0 42.73409962 0 56 4 C56.72058594 4.20898926 57.44117187 4.41797852 58.18359375 4.63330078 C79.07948148 10.84898931 96.19725661 22.13987639 112 37 C112.59039063 37.5259375 113.18078125 38.051875 113.7890625 38.59375 C136.89270879 60.05495698 148.4169085 93.03500953 149.984375 123.83203125 C150 127 150 127 149 129 C99.83 129 50.66 129 0 129 C0 86.43 0 43.86 0 0 Z " fill="#184797" transform="translate(2370,350)"/>
</svg>
